<svg width="95" height="95" viewBox="0 0 95 95" fill="none" xmlns="http://www.w3.org/2000/svg">
<path d="M37.6041 65.3126L65.3125 47.5001L37.6041 29.6876V65.3126ZM47.5 87.0834C42.0243 87.0834 36.8784 86.0437 32.0625 83.9642C27.2465 81.8848 23.0573 79.0652 19.4948 75.5053C15.9323 71.9428 13.1126 67.7536 11.0358 62.9376C8.95899 58.1216 7.91926 52.9758 7.91663 47.5001C7.91663 42.0244 8.95635 36.8786 11.0358 32.0626C13.1152 27.2466 15.9349 23.0574 19.4948 19.4949C23.0573 15.9324 27.2465 13.1127 32.0625 11.0359C36.8784 8.95911 42.0243 7.91939 47.5 7.91675C52.9757 7.91675 58.1215 8.95647 62.9375 11.0359C67.7534 13.1154 71.9427 15.935 75.5052 19.4949C79.0677 23.0574 81.8886 27.2466 83.9681 32.0626C86.0475 36.8786 87.0859 42.0244 87.0833 47.5001C87.0833 52.9758 86.0436 58.1216 83.9641 62.9376C81.8847 67.7536 79.065 71.9428 75.5052 75.5053C71.9427 79.0678 67.7534 81.8888 62.9375 83.9682C58.1215 86.0476 52.9757 87.0861 47.5 87.0834Z" fill="#BDBDBD" fill-opacity="0.87"/>
</svg>
